<svg width="64" height="78" viewBox="0 0 64 78" fill="none" xmlns="http://www.w3.org/2000/svg"><path d="M62.9297 56.0449C64.4629 67.4422 55.5995 77.5781 44.0996 77.5781H30.4766C21.5773 77.5781 14.2832 71.517 12.124 63.5273C5.18157 60.0626 0.000154166 52.6984 0 46.1777C0 40.517 4.25977 38.7009 14.4561 38.1846L15.2734 33H59.8301L62.9297 56.0449ZM13.9072 41.665C9.4958 41.4971 5.8009 41.645 4.57617 44.7344C3.0988 48.462 6.48993 54.3305 11.6689 55.8887C11.6818 55.799 11.6938 55.709 11.708 55.6191L13.9072 41.665ZM44.667 9C44.5585 9.41729 44.4623 9.82546 44.3789 10.2256C43.5372 13.952 44.0003 16.8647 45.7627 19.123C45.8508 19.2425 45.9422 19.3619 46.0352 19.4795C47.6397 21.3646 48.1931 24.7214 46.3662 26.8604C45.3164 28.019 44.1849 29.126 42.9717 30.1807C42.6534 30.4573 42.3295 30.7305 42 31C42.1046 30.5873 42.2152 30.178 42.3311 29.7725C42.7726 28.2268 43.2955 26.7327 43.9004 25.291C44.2447 24.1323 43.782 23.0113 42.9492 22.0117C42.8103 21.8468 42.6739 21.6747 42.543 21.4971C39.5965 17.9025 40.8705 12.3238 43.7129 9.85938C44.0151 9.55943 44.3338 9.27374 44.667 9ZM31.5 0C31.4023 0.520632 31.3181 1.02643 31.2432 1.52734C30.5023 6.06851 30.8706 9.93807 33.667 12.3496C33.7561 12.4381 33.8423 12.5295 33.9258 12.624C35.3007 14.1042 35.7112 16.5716 34.8281 18.3916C33.4383 21.2726 31.7994 24.0545 29.9121 26.7373C29.6143 27.1606 29.3102 27.5816 29 28C29.0625 27.4829 29.1312 26.9682 29.2061 26.4561C29.6804 23.2105 30.4033 20.064 31.375 17.0166C31.5326 16.3436 31.3639 15.7799 30.9268 15.2715C30.8992 15.2403 30.8708 15.2092 30.8408 15.1787C29.0012 13.4591 27.7035 10.5196 27.9482 7.93066C28.1232 5.3278 29.2096 3.12646 30.5391 1.24023C30.8417 0.816575 31.161 0.407143 31.5 0Z" fill="black"/></svg>
